<?xml version="1.0" encoding="UTF-8" standalone="no"?>
<svg width="222px" height="196px" viewBox="0 0 222 196" version="1.1" xmlns="http://www.w3.org/2000/svg" xmlns:xlink="http://www.w3.org/1999/xlink" xmlns:sketch="http://www.bohemiancoding.com/sketch/ns">
    <title>Untitled</title>
    <description>Created with Sketch (http://www.bohemiancoding.com/sketch)</description>
    <defs>
        <path id="path-1" d="M0,0 L0,1000 L1000,1000 L1000,0 L0,0 Z"></path>
    </defs>
    <g id="Page-1" stroke="none" stroke-width="1" fill="none" fill-rule="evenodd" sketch:type="MSPage">
        <g id="pattern" sketch:type="MSLayerGroup" transform="translate(-445.000000, -306.000000)">
            <mask id="mask-2" sketch:name="Clip 2" fill="white">
                <use xlink:href="#path-1"></use>
            </mask>
            <g id="Clip-2"></g>
            <path d="M444.44,435.87 L451.78,462.67 L455.11,454.32 L444.44,435.87 L444.44,435.87 Z M498.83,465.81 L493.19,468.62 L493.9,469.51 L498.83,465.81 L498.83,465.81 Z M491.61,471.22 L487.55,471.42 L470.04,480.14 L465.63,472.52 L454.62,473.07 L455.65,476.8 L453.25,500 L491.61,471.22 L491.61,471.22 Z" id="Fill-962" fill="#0099D6" sketch:type="MSShapeGroup" mask="url(#mask-2)"></path>
            <path d="M444.44,435.87 L451.78,462.67 L455.11,454.32 L444.44,435.87 L444.44,435.87 Z M498.83,465.81 L493.19,468.62 L493.9,469.51 L498.83,465.81 L498.83,465.81 Z M491.61,471.22 L487.55,471.42 L470.04,480.14 L465.63,472.52 L454.62,473.07 L455.65,476.8 L453.25,500 L491.61,471.22 L491.61,471.22 Z" id="Stroke-963" stroke="#F39C0D" stroke-linecap="square" sketch:type="MSShapeGroup" mask="url(#mask-2)"></path>
            <path d="M499.98,467.94 L480.44,487.68 L489.34,486.39 L499.98,467.94 L499.98,467.94 Z M501.24,530 L496,526.52 L495.58,527.58 L501.24,530 L501.24,530 Z M492.95,526.46 L490.75,523.05 L474.44,512.24 L478.84,504.61 L472.86,495.35 L470.14,498.1 L448.85,507.62 L492.95,526.46 L492.95,526.46 Z" id="Fill-966" fill="#0099D6" sketch:type="MSShapeGroup" mask="url(#mask-2)"></path>
            <path d="M499.98,467.94 L480.44,487.68 L489.34,486.39 L499.98,467.94 L499.98,467.94 Z M501.24,530 L496,526.52 L495.58,527.58 L501.24,530 L501.24,530 Z M492.95,526.46 L490.75,523.05 L474.44,512.24 L478.84,504.61 L472.86,495.35 L470.14,498.1 L448.85,507.62 L492.95,526.46 L492.95,526.46 Z" id="Stroke-967" stroke="#F39C0D" stroke-linecap="square" sketch:type="MSShapeGroup" mask="url(#mask-2)"></path>
            <path d="M499.98,467.94 L473.11,474.98 L478.68,467.92 L499.98,467.94 L499.98,467.94 Z M446.86,435.81 L447.25,442.09 L446.12,441.92 L446.86,435.81 L446.86,435.81 Z M445.78,444.76 L447.64,448.38 L448.84,467.91 L457.65,467.91 L462.68,477.72 L458.94,478.7 L440.04,492.38 L445.78,444.76 L445.78,444.76 Z" id="Fill-968" fill="#0099D6" sketch:type="MSShapeGroup" mask="url(#mask-2)"></path>
            <path d="M499.98,467.94 L473.11,474.98 L478.68,467.92 L499.98,467.94 L499.98,467.94 Z M446.86,435.81 L447.25,442.09 L446.12,441.92 L446.86,435.81 L446.86,435.81 Z M445.78,444.76 L447.64,448.38 L448.84,467.91 L457.65,467.91 L462.68,477.72 L458.94,478.7 L440.04,492.38 L445.78,444.76 L445.78,444.76 Z" id="Stroke-969" stroke="#F39C0D" stroke-linecap="square" sketch:type="MSShapeGroup" mask="url(#mask-2)"></path>
            <path d="M499.98,532.06 L480.44,512.32 L489.34,513.61 L499.98,532.06 L499.98,532.06 Z M501.24,470 L496,473.48 L495.58,472.42 L501.24,470 L501.24,470 Z M492.95,473.54 L490.75,476.95 L474.44,487.76 L478.84,495.39 L472.86,504.65 L470.14,501.9 L448.85,492.38 L492.95,473.54 L492.95,473.54 Z" id="Fill-972" fill="#0099D6" sketch:type="MSShapeGroup" mask="url(#mask-2)"></path>
            <path d="M499.98,532.06 L480.44,512.32 L489.34,513.61 L499.98,532.06 L499.98,532.06 Z M501.24,470 L496,473.48 L495.58,472.42 L501.24,470 L501.24,470 Z M492.95,473.54 L490.75,476.95 L474.44,487.76 L478.84,495.39 L472.86,504.65 L470.14,501.9 L448.85,492.38 L492.95,473.54 L492.95,473.54 Z" id="Stroke-973" stroke="#F39C0D" stroke-linecap="square" sketch:type="MSShapeGroup" mask="url(#mask-2)"></path>
            <path d="M444.44,564.13 L451.78,537.33 L455.11,545.68 L444.44,564.13 L444.44,564.13 Z M498.83,534.19 L493.19,531.38 L493.9,530.49 L498.83,534.19 L498.83,534.19 Z M491.61,528.78 L487.55,528.58 L470.04,519.86 L465.63,527.48 L454.62,526.93 L455.65,523.2 L453.25,500 L491.61,528.78 L491.61,528.78 Z" id="Fill-976" fill="#0099D6" sketch:type="MSShapeGroup" mask="url(#mask-2)"></path>
            <path d="M444.44,564.13 L451.78,537.33 L455.11,545.68 L444.44,564.13 L444.44,564.13 Z M498.83,534.19 L493.19,531.38 L493.9,530.49 L498.83,534.19 L498.83,534.19 Z M491.61,528.78 L487.55,528.58 L470.04,519.86 L465.63,527.48 L454.62,526.93 L455.65,523.2 L453.25,500 L491.61,528.78 L491.61,528.78 Z" id="Stroke-977" stroke="#F39C0D" stroke-linecap="square" sketch:type="MSShapeGroup" mask="url(#mask-2)"></path>
            <path d="M388.91,467.94 L415.78,474.98 L410.21,467.92 L388.91,467.94 L388.91,467.94 Z M442.03,435.81 L441.64,442.09 L442.76,441.92 L442.03,435.81 L442.03,435.81 Z M443.11,444.76 L441.25,448.38 L440.04,467.91 L431.24,467.91 L426.21,477.72 L429.95,478.7 L448.85,492.38 L443.11,444.76 L443.11,444.76 Z" id="Fill-982" fill="#0099D6" sketch:type="MSShapeGroup" mask="url(#mask-2)"></path>
            <path d="M388.91,467.94 L415.78,474.98 L410.21,467.92 L388.91,467.94 L388.91,467.94 Z M442.03,435.81 L441.64,442.09 L442.76,441.92 L442.03,435.81 L442.03,435.81 Z M443.11,444.76 L441.25,448.38 L440.04,467.91 L431.24,467.91 L426.21,477.72 L429.95,478.7 L448.85,492.38 L443.11,444.76 L443.11,444.76 Z" id="Stroke-983" stroke="#F39C0D" stroke-linecap="square" sketch:type="MSShapeGroup" mask="url(#mask-2)"></path>
            <path d="M444.98,370.94 L425.44,390.68 L434.34,389.39 L444.98,370.94 L444.98,370.94 Z M446.24,433 L441,429.52 L440.58,430.58 L446.24,433 L446.24,433 Z M437.95,429.46 L435.75,426.05 L419.44,415.24 L423.84,407.61 L417.86,398.35 L415.14,401.1 L393.85,410.62 L437.95,429.46 L437.95,429.46 Z" id="Fill-990" fill="#0099D6" sketch:type="MSShapeGroup" mask="url(#mask-2)"></path>
            <path d="M444.98,370.94 L425.44,390.68 L434.34,389.39 L444.98,370.94 L444.98,370.94 Z M446.24,433 L441,429.52 L440.58,430.58 L446.24,433 L446.24,433 Z M437.95,429.46 L435.75,426.05 L419.44,415.24 L423.84,407.61 L417.86,398.35 L415.14,401.1 L393.85,410.62 L437.95,429.46 L437.95,429.46 Z" id="Stroke-991" stroke="#F39C0D" stroke-linecap="square" sketch:type="MSShapeGroup" mask="url(#mask-2)"></path>
            <path d="M444.98,435.06 L425.44,415.32 L434.34,416.61 L444.98,435.06 L444.98,435.06 Z M446.24,373 L441,376.48 L440.58,375.42 L446.24,373 L446.24,373 Z M437.95,376.54 L435.75,379.95 L419.44,390.76 L423.84,398.39 L417.86,407.65 L415.14,404.9 L393.85,395.38 L437.95,376.54 L437.95,376.54 Z" id="Fill-996" fill="#0099D6" sketch:type="MSShapeGroup" mask="url(#mask-2)"></path>
            <path d="M444.98,435.06 L425.44,415.32 L434.34,416.61 L444.98,435.06 L444.98,435.06 Z M446.24,373 L441,376.48 L440.58,375.42 L446.24,373 L446.24,373 Z M437.95,376.54 L435.75,379.95 L419.44,390.76 L423.84,398.39 L417.86,407.65 L415.14,404.9 L393.85,395.38 L437.95,376.54 L437.95,376.54 Z" id="Stroke-997" stroke="#F39C0D" stroke-linecap="square" sketch:type="MSShapeGroup" mask="url(#mask-2)"></path>
            <path d="M555.56,435.87 L562.89,462.67 L566.22,454.32 L555.56,435.87 L555.56,435.87 Z M609.94,465.81 L604.3,468.62 L605.01,469.51 L609.94,465.81 L609.94,465.81 Z M602.73,471.22 L598.66,471.42 L581.15,480.14 L576.74,472.52 L565.74,473.07 L566.76,476.8 L564.36,500 L602.73,471.22 L602.73,471.22 Z" id="Fill-1202" fill="#0099D6" sketch:type="MSShapeGroup" mask="url(#mask-2)"></path>
            <path d="M555.56,435.87 L562.89,462.67 L566.22,454.32 L555.56,435.87 L555.56,435.87 Z M609.94,465.81 L604.3,468.62 L605.01,469.51 L609.94,465.81 L609.94,465.81 Z M602.73,471.22 L598.66,471.42 L581.15,480.14 L576.74,472.52 L565.74,473.07 L566.76,476.8 L564.36,500 L602.73,471.22 L602.73,471.22 Z" id="Stroke-1203" stroke="#F39C0D" stroke-linecap="square" sketch:type="MSShapeGroup" mask="url(#mask-2)"></path>
            <path d="M555.56,435.87 L548.22,462.67 L544.89,454.32 L555.56,435.87 L555.56,435.87 Z M501.17,465.81 L506.81,468.62 L506.1,469.51 L501.17,465.81 L501.17,465.81 Z M508.39,471.22 L512.45,471.42 L529.96,480.14 L534.37,472.52 L545.38,473.07 L544.35,476.8 L546.75,500 L508.39,471.22 L508.39,471.22 Z" id="Fill-1204" fill="#0099D6" sketch:type="MSShapeGroup" mask="url(#mask-2)"></path>
            <path d="M555.56,435.87 L548.22,462.67 L544.89,454.32 L555.56,435.87 L555.56,435.87 Z M501.17,465.81 L506.81,468.62 L506.1,469.51 L501.17,465.81 L501.17,465.81 Z M508.39,471.22 L512.45,471.42 L529.96,480.14 L534.37,472.52 L545.38,473.07 L544.35,476.8 L546.75,500 L508.39,471.22 L508.39,471.22 Z" id="Stroke-1205" stroke="#F39C0D" stroke-linecap="square" sketch:type="MSShapeGroup" mask="url(#mask-2)"></path>
            <path d="M611.09,467.94 L591.55,487.68 L600.45,486.39 L611.09,467.94 L611.09,467.94 Z M612.35,530 L607.11,526.52 L606.69,527.58 L612.35,530 L612.35,530 Z M604.06,526.46 L601.86,523.05 L585.55,512.24 L589.95,504.61 L583.97,495.35 L581.25,498.1 L559.96,507.62 L604.06,526.46 L604.06,526.46 Z" id="Fill-1206" fill="#0099D6" sketch:type="MSShapeGroup" mask="url(#mask-2)"></path>
            <path d="M611.09,467.94 L591.55,487.68 L600.45,486.39 L611.09,467.94 L611.09,467.94 Z M612.35,530 L607.11,526.52 L606.69,527.58 L612.35,530 L612.35,530 Z M604.06,526.46 L601.86,523.05 L585.55,512.24 L589.95,504.61 L583.97,495.35 L581.25,498.1 L559.96,507.62 L604.06,526.46 L604.06,526.46 Z" id="Stroke-1207" stroke="#F39C0D" stroke-linecap="square" sketch:type="MSShapeGroup" mask="url(#mask-2)"></path>
            <path d="M611.09,467.94 L584.22,474.98 L589.79,467.92 L611.09,467.94 L611.09,467.94 Z M557.97,435.81 L558.36,442.09 L557.24,441.92 L557.97,435.81 L557.97,435.81 Z M556.89,444.76 L558.75,448.38 L559.96,467.91 L568.76,467.91 L573.79,477.72 L570.05,478.7 L551.15,492.38 L556.89,444.76 L556.89,444.76 Z" id="Fill-1208" fill="#0099D6" sketch:type="MSShapeGroup" mask="url(#mask-2)"></path>
            <path d="M611.09,467.94 L584.22,474.98 L589.79,467.92 L611.09,467.94 L611.09,467.94 Z M557.97,435.81 L558.36,442.09 L557.24,441.92 L557.97,435.81 L557.97,435.81 Z M556.89,444.76 L558.75,448.38 L559.96,467.91 L568.76,467.91 L573.79,477.72 L570.05,478.7 L551.15,492.38 L556.89,444.76 L556.89,444.76 Z" id="Stroke-1209" stroke="#F39C0D" stroke-linecap="square" sketch:type="MSShapeGroup" mask="url(#mask-2)"></path>
            <path d="M611.09,532.06 L591.55,512.32 L600.45,513.61 L611.09,532.06 L611.09,532.06 Z M612.35,470 L607.11,473.48 L606.69,472.42 L612.35,470 L612.35,470 Z M604.06,473.54 L601.86,476.95 L585.55,487.76 L589.95,495.39 L583.97,504.65 L581.25,501.9 L559.96,492.38 L604.06,473.54 L604.06,473.54 Z" id="Fill-1212" fill="#0099D6" sketch:type="MSShapeGroup" mask="url(#mask-2)"></path>
            <path d="M611.09,532.06 L591.55,512.32 L600.45,513.61 L611.09,532.06 L611.09,532.06 Z M612.35,470 L607.11,473.48 L606.69,472.42 L612.35,470 L612.35,470 Z M604.06,473.54 L601.86,476.95 L585.55,487.76 L589.95,495.39 L583.97,504.65 L581.25,501.9 L559.96,492.38 L604.06,473.54 L604.06,473.54 Z" id="Stroke-1213" stroke="#F39C0D" stroke-linecap="square" sketch:type="MSShapeGroup" mask="url(#mask-2)"></path>
            <path d="M555.56,564.13 L548.22,537.33 L544.89,545.68 L555.56,564.13 L555.56,564.13 Z M501.17,534.19 L506.81,531.38 L506.1,530.49 L501.17,534.19 L501.17,534.19 Z M508.39,528.78 L512.45,528.58 L529.96,519.86 L534.37,527.48 L545.38,526.93 L544.35,523.2 L546.75,500 L508.39,528.78 L508.39,528.78 Z" id="Fill-1214" fill="#0099D6" sketch:type="MSShapeGroup" mask="url(#mask-2)"></path>
            <path d="M555.56,564.13 L548.22,537.33 L544.89,545.68 L555.56,564.13 L555.56,564.13 Z M501.17,534.19 L506.81,531.38 L506.1,530.49 L501.17,534.19 L501.17,534.19 Z M508.39,528.78 L512.45,528.58 L529.96,519.86 L534.37,527.48 L545.38,526.93 L544.35,523.2 L546.75,500 L508.39,528.78 L508.39,528.78 Z" id="Stroke-1215" stroke="#F39C0D" stroke-linecap="square" sketch:type="MSShapeGroup" mask="url(#mask-2)"></path>
            <path d="M555.56,564.13 L562.89,537.33 L566.22,545.68 L555.56,564.13 L555.56,564.13 Z M609.94,534.19 L604.3,531.38 L605.01,530.49 L609.94,534.19 L609.94,534.19 Z M602.73,528.78 L598.66,528.58 L581.15,519.86 L576.74,527.48 L565.74,526.93 L566.76,523.2 L564.36,500 L602.73,528.78 L602.73,528.78 Z" id="Fill-1216" fill="#0099D6" sketch:type="MSShapeGroup" mask="url(#mask-2)"></path>
            <path d="M555.56,564.13 L562.89,537.33 L566.22,545.68 L555.56,564.13 L555.56,564.13 Z M609.94,534.19 L604.3,531.38 L605.01,530.49 L609.94,534.19 L609.94,534.19 Z M602.73,528.78 L598.66,528.58 L581.15,519.86 L576.74,527.48 L565.74,526.93 L566.76,523.2 L564.36,500 L602.73,528.78 L602.73,528.78 Z" id="Stroke-1217" stroke="#F39C0D" stroke-linecap="square" sketch:type="MSShapeGroup" mask="url(#mask-2)"></path>
            <path d="M500.02,532.06 L519.56,512.32 L510.66,513.61 L500.02,532.06 L500.02,532.06 Z M498.76,470 L504,473.48 L504.42,472.42 L498.76,470 L498.76,470 Z M507.05,473.54 L509.25,476.95 L525.56,487.76 L521.16,495.39 L527.14,504.65 L529.86,501.9 L551.15,492.38 L507.05,473.54 L507.05,473.54 Z" id="Fill-1218" fill="#0099D6" sketch:type="MSShapeGroup" mask="url(#mask-2)"></path>
            <path d="M500.02,532.06 L519.56,512.32 L510.66,513.61 L500.02,532.06 L500.02,532.06 Z M498.76,470 L504,473.48 L504.42,472.42 L498.76,470 L498.76,470 Z M507.05,473.54 L509.25,476.95 L525.56,487.76 L521.16,495.39 L527.14,504.65 L529.86,501.9 L551.15,492.38 L507.05,473.54 L507.05,473.54 Z" id="Stroke-1219" stroke="#F39C0D" stroke-linecap="square" sketch:type="MSShapeGroup" mask="url(#mask-2)"></path>
            <path d="M500.02,467.94 L526.89,474.98 L521.32,467.92 L500.02,467.94 L500.02,467.94 Z M553.14,435.81 L552.75,442.09 L553.88,441.92 L553.14,435.81 L553.14,435.81 Z M554.22,444.76 L552.36,448.38 L551.16,467.91 L542.35,467.91 L537.32,477.72 L541.06,478.7 L559.96,492.38 L554.22,444.76 L554.22,444.76 Z" id="Fill-1222" fill="#0099D6" sketch:type="MSShapeGroup" mask="url(#mask-2)"></path>
            <path d="M500.02,467.94 L526.89,474.98 L521.32,467.92 L500.02,467.94 L500.02,467.94 Z M553.14,435.81 L552.75,442.09 L553.88,441.92 L553.14,435.81 L553.14,435.81 Z M554.22,444.76 L552.36,448.38 L551.16,467.91 L542.35,467.91 L537.32,477.72 L541.06,478.7 L559.96,492.38 L554.22,444.76 L554.22,444.76 Z" id="Stroke-1223" stroke="#F39C0D" stroke-linecap="square" sketch:type="MSShapeGroup" mask="url(#mask-2)"></path>
            <path d="M500.02,467.94 L519.56,487.68 L510.66,486.39 L500.02,467.94 L500.02,467.94 Z M498.76,530 L504,526.52 L504.42,527.58 L498.76,530 L498.76,530 Z M507.05,526.46 L509.25,523.05 L525.56,512.24 L521.16,504.61 L527.14,495.35 L529.86,498.1 L551.15,507.62 L507.05,526.46 L507.05,526.46 Z" id="Fill-1224" fill="#0099D6" sketch:type="MSShapeGroup" mask="url(#mask-2)"></path>
            <path d="M500.02,467.94 L519.56,487.68 L510.66,486.39 L500.02,467.94 L500.02,467.94 Z M498.76,530 L504,526.52 L504.42,527.58 L498.76,530 L498.76,530 Z M507.05,526.46 L509.25,523.05 L525.56,512.24 L521.16,504.61 L527.14,495.35 L529.86,498.1 L551.15,507.62 L507.05,526.46 L507.05,526.46 Z" id="Stroke-1225" stroke="#F39C0D" stroke-linecap="square" sketch:type="MSShapeGroup" mask="url(#mask-2)"></path>
            <path d="M500.56,338.87 L507.89,365.67 L511.22,357.32 L500.56,338.87 L500.56,338.87 Z M554.94,368.81 L549.3,371.62 L550.01,372.51 L554.94,368.81 L554.94,368.81 Z M547.73,374.22 L543.66,374.42 L526.15,383.14 L521.74,375.52 L510.74,376.07 L511.76,379.8 L509.36,403 L547.73,374.22 L547.73,374.22 Z" id="Fill-1226" fill="#0099D6" sketch:type="MSShapeGroup" mask="url(#mask-2)"></path>
            <path d="M500.56,338.87 L507.89,365.67 L511.22,357.32 L500.56,338.87 L500.56,338.87 Z M554.94,368.81 L549.3,371.62 L550.01,372.51 L554.94,368.81 L554.94,368.81 Z M547.73,374.22 L543.66,374.42 L526.15,383.14 L521.74,375.52 L510.74,376.07 L511.76,379.8 L509.36,403 L547.73,374.22 L547.73,374.22 Z" id="Stroke-1227" stroke="#F39C0D" stroke-linecap="square" sketch:type="MSShapeGroup" mask="url(#mask-2)"></path>
            <path d="M500.56,338.87 L493.22,365.67 L489.89,357.32 L500.56,338.87 L500.56,338.87 Z M446.17,368.81 L451.81,371.62 L451.1,372.51 L446.17,368.81 L446.17,368.81 Z M453.39,374.22 L457.45,374.42 L474.96,383.14 L479.37,375.52 L490.38,376.07 L489.35,379.8 L491.75,403 L453.39,374.22 L453.39,374.22 Z" id="Fill-1228" fill="#0099D6" sketch:type="MSShapeGroup" mask="url(#mask-2)"></path>
            <path d="M500.56,338.87 L493.22,365.67 L489.89,357.32 L500.56,338.87 L500.56,338.87 Z M446.17,368.81 L451.81,371.62 L451.1,372.51 L446.17,368.81 L446.17,368.81 Z M453.39,374.22 L457.45,374.42 L474.96,383.14 L479.37,375.52 L490.38,376.07 L489.35,379.8 L491.75,403 L453.39,374.22 L453.39,374.22 Z" id="Stroke-1229" stroke="#F39C0D" stroke-linecap="square" sketch:type="MSShapeGroup" mask="url(#mask-2)"></path>
            <path d="M556.09,370.94 L536.55,390.68 L545.45,389.39 L556.09,370.94 L556.09,370.94 Z M557.35,433 L552.11,429.52 L551.69,430.58 L557.35,433 L557.35,433 Z M549.06,429.46 L546.86,426.05 L530.55,415.24 L534.95,407.61 L528.97,398.35 L526.25,401.1 L504.96,410.62 L549.06,429.46 L549.06,429.46 Z" id="Fill-1230" fill="#0099D6" sketch:type="MSShapeGroup" mask="url(#mask-2)"></path>
            <path d="M556.09,370.94 L536.55,390.68 L545.45,389.39 L556.09,370.94 L556.09,370.94 Z M557.35,433 L552.11,429.52 L551.69,430.58 L557.35,433 L557.35,433 Z M549.06,429.46 L546.86,426.05 L530.55,415.24 L534.95,407.61 L528.97,398.35 L526.25,401.1 L504.96,410.62 L549.06,429.46 L549.06,429.46 Z" id="Stroke-1231" stroke="#F39C0D" stroke-linecap="square" sketch:type="MSShapeGroup" mask="url(#mask-2)"></path>
            <path d="M556.09,370.94 L529.22,377.98 L534.79,370.92 L556.09,370.94 L556.09,370.94 Z M502.97,338.81 L503.36,345.09 L502.24,344.92 L502.97,338.81 L502.97,338.81 Z M501.89,347.76 L503.75,351.38 L504.96,370.91 L513.76,370.91 L518.79,380.72 L515.05,381.7 L496.15,395.38 L501.89,347.76 L501.89,347.76 Z" id="Fill-1232" fill="#0099D6" sketch:type="MSShapeGroup" mask="url(#mask-2)"></path>
            <path d="M556.09,370.94 L529.22,377.98 L534.79,370.92 L556.09,370.94 L556.09,370.94 Z M502.97,338.81 L503.36,345.09 L502.24,344.92 L502.97,338.81 L502.97,338.81 Z M501.89,347.76 L503.75,351.38 L504.96,370.91 L513.76,370.91 L518.79,380.72 L515.05,381.7 L496.15,395.38 L501.89,347.76 L501.89,347.76 Z" id="Stroke-1233" stroke="#F39C0D" stroke-linecap="square" sketch:type="MSShapeGroup" mask="url(#mask-2)"></path>
            <path d="M556.09,435.06 L529.22,428.02 L534.79,435.08 L556.09,435.06 L556.09,435.06 Z M502.97,467.19 L503.36,460.91 L502.24,461.08 L502.97,467.19 L502.97,467.19 Z M501.89,458.24 L503.75,454.62 L504.96,435.09 L513.76,435.09 L518.79,425.28 L515.05,424.3 L496.15,410.62 L501.89,458.24 L501.89,458.24 Z" id="Fill-1234" fill="#0099D6" sketch:type="MSShapeGroup" mask="url(#mask-2)"></path>
            <path d="M556.09,435.06 L529.22,428.02 L534.79,435.08 L556.09,435.06 L556.09,435.06 Z M502.97,467.19 L503.36,460.91 L502.24,461.08 L502.97,467.19 L502.97,467.19 Z M501.89,458.24 L503.75,454.62 L504.96,435.09 L513.76,435.09 L518.79,425.28 L515.05,424.3 L496.15,410.62 L501.89,458.24 L501.89,458.24 Z" id="Stroke-1235" stroke="#F39C0D" stroke-linecap="square" sketch:type="MSShapeGroup" mask="url(#mask-2)"></path>
            <path d="M556.09,435.06 L536.55,415.32 L545.45,416.61 L556.09,435.06 L556.09,435.06 Z M557.35,373 L552.11,376.48 L551.69,375.42 L557.35,373 L557.35,373 Z M549.06,376.54 L546.86,379.95 L530.55,390.76 L534.95,398.39 L528.97,407.65 L526.25,404.9 L504.96,395.38 L549.06,376.54 L549.06,376.54 Z" id="Fill-1236" fill="#0099D6" sketch:type="MSShapeGroup" mask="url(#mask-2)"></path>
            <path d="M556.09,435.06 L536.55,415.32 L545.45,416.61 L556.09,435.06 L556.09,435.06 Z M557.35,373 L552.11,376.48 L551.69,375.42 L557.35,373 L557.35,373 Z M549.06,376.54 L546.86,379.95 L530.55,390.76 L534.95,398.39 L528.97,407.65 L526.25,404.9 L504.96,395.38 L549.06,376.54 L549.06,376.54 Z" id="Stroke-1237" stroke="#F39C0D" stroke-linecap="square" sketch:type="MSShapeGroup" mask="url(#mask-2)"></path>
            <path d="M500.56,467.13 L493.22,440.33 L489.89,448.68 L500.56,467.13 L500.56,467.13 Z M446.17,437.19 L451.81,434.38 L451.1,433.49 L446.17,437.19 L446.17,437.19 Z M453.39,431.78 L457.45,431.58 L474.96,422.86 L479.37,430.48 L490.38,429.93 L489.35,426.2 L491.75,403 L453.39,431.78 L453.39,431.78 Z" id="Fill-1238" fill="#0099D6" sketch:type="MSShapeGroup" mask="url(#mask-2)"></path>
            <path d="M500.56,467.13 L493.22,440.33 L489.89,448.68 L500.56,467.13 L500.56,467.13 Z M446.17,437.19 L451.81,434.38 L451.1,433.49 L446.17,437.19 L446.17,437.19 Z M453.39,431.78 L457.45,431.58 L474.96,422.86 L479.37,430.48 L490.38,429.93 L489.35,426.2 L491.75,403 L453.39,431.78 L453.39,431.78 Z" id="Stroke-1239" stroke="#F39C0D" stroke-linecap="square" sketch:type="MSShapeGroup" mask="url(#mask-2)"></path>
            <path d="M500.56,467.13 L507.89,440.33 L511.22,448.68 L500.56,467.13 L500.56,467.13 Z M554.94,437.19 L549.3,434.38 L550.01,433.49 L554.94,437.19 L554.94,437.19 Z M547.73,431.78 L543.66,431.58 L526.15,422.86 L521.74,430.48 L510.74,429.93 L511.76,426.2 L509.36,403 L547.73,431.78 L547.73,431.78 Z" id="Fill-1240" fill="#0099D6" sketch:type="MSShapeGroup" mask="url(#mask-2)"></path>
            <path d="M500.56,467.13 L507.89,440.33 L511.22,448.68 L500.56,467.13 L500.56,467.13 Z M554.94,437.19 L549.3,434.38 L550.01,433.49 L554.94,437.19 L554.94,437.19 Z M547.73,431.78 L543.66,431.58 L526.15,422.86 L521.74,430.48 L510.74,429.93 L511.76,426.2 L509.36,403 L547.73,431.78 L547.73,431.78 Z" id="Stroke-1241" stroke="#F39C0D" stroke-linecap="square" sketch:type="MSShapeGroup" mask="url(#mask-2)"></path>
            <path d="M445.02,435.06 L464.56,415.32 L455.66,416.61 L445.02,435.06 L445.02,435.06 Z M443.76,373 L449,376.48 L449.42,375.42 L443.76,373 L443.76,373 Z M452.05,376.54 L454.25,379.95 L470.56,390.76 L466.16,398.39 L472.14,407.65 L474.86,404.9 L496.15,395.38 L452.05,376.54 L452.05,376.54 Z" id="Fill-1242" fill="#0099D6" sketch:type="MSShapeGroup" mask="url(#mask-2)"></path>
            <path d="M445.02,435.06 L464.56,415.32 L455.66,416.61 L445.02,435.06 L445.02,435.06 Z M443.76,373 L449,376.48 L449.42,375.42 L443.76,373 L443.76,373 Z M452.05,376.54 L454.25,379.95 L470.56,390.76 L466.16,398.39 L472.14,407.65 L474.86,404.9 L496.15,395.38 L452.05,376.54 L452.05,376.54 Z" id="Stroke-1243" stroke="#F39C0D" stroke-linecap="square" sketch:type="MSShapeGroup" mask="url(#mask-2)"></path>
            <path d="M445.02,435.06 L471.89,428.02 L466.32,435.08 L445.02,435.06 L445.02,435.06 Z M498.14,467.19 L497.75,460.91 L498.88,461.08 L498.14,467.19 L498.14,467.19 Z M499.22,458.24 L497.36,454.62 L496.16,435.09 L487.35,435.09 L482.32,425.28 L486.06,424.3 L504.96,410.62 L499.22,458.24 L499.22,458.24 Z" id="Fill-1244" fill="#0099D6" sketch:type="MSShapeGroup" mask="url(#mask-2)"></path>
            <path d="M445.02,435.06 L471.89,428.02 L466.32,435.08 L445.02,435.06 L445.02,435.06 Z M498.14,467.19 L497.75,460.91 L498.88,461.08 L498.14,467.19 L498.14,467.19 Z M499.22,458.24 L497.36,454.62 L496.16,435.09 L487.35,435.09 L482.32,425.28 L486.06,424.3 L504.96,410.62 L499.22,458.24 L499.22,458.24 Z" id="Stroke-1245" stroke="#F39C0D" stroke-linecap="square" sketch:type="MSShapeGroup" mask="url(#mask-2)"></path>
            <path d="M445.02,370.94 L471.89,377.98 L466.32,370.92 L445.02,370.94 L445.02,370.94 Z M498.14,338.81 L497.75,345.09 L498.88,344.92 L498.14,338.81 L498.14,338.81 Z M499.22,347.76 L497.36,351.38 L496.16,370.91 L487.35,370.91 L482.32,380.72 L486.06,381.7 L504.96,395.38 L499.22,347.76 L499.22,347.76 Z" id="Fill-1246" fill="#0099D6" sketch:type="MSShapeGroup" mask="url(#mask-2)"></path>
            <path d="M445.02,370.94 L471.89,377.98 L466.32,370.92 L445.02,370.94 L445.02,370.94 Z M498.14,338.81 L497.75,345.09 L498.88,344.92 L498.14,338.81 L498.14,338.81 Z M499.22,347.76 L497.36,351.38 L496.16,370.91 L487.35,370.91 L482.32,380.72 L486.06,381.7 L504.96,395.38 L499.22,347.76 L499.22,347.76 Z" id="Stroke-1247" stroke="#F39C0D" stroke-linecap="square" sketch:type="MSShapeGroup" mask="url(#mask-2)"></path>
            <path d="M445.02,370.94 L464.56,390.68 L455.66,389.39 L445.02,370.94 L445.02,370.94 Z M443.76,433 L449,429.52 L449.42,430.58 L443.76,433 L443.76,433 Z M452.05,429.46 L454.25,426.05 L470.56,415.24 L466.16,407.61 L472.14,398.35 L474.86,401.1 L496.15,410.62 L452.05,429.46 L452.05,429.46 Z" id="Fill-1248" fill="#0099D6" sketch:type="MSShapeGroup" mask="url(#mask-2)"></path>
            <path d="M445.02,370.94 L464.56,390.68 L455.66,389.39 L445.02,370.94 L445.02,370.94 Z M443.76,433 L449,429.52 L449.42,430.58 L443.76,433 L443.76,433 Z M452.05,429.46 L454.25,426.05 L470.56,415.24 L466.16,407.61 L472.14,398.35 L474.86,401.1 L496.15,410.62 L452.05,429.46 L452.05,429.46 Z" id="Stroke-1249" stroke="#F39C0D" stroke-linecap="square" sketch:type="MSShapeGroup" mask="url(#mask-2)"></path>
            <path d="M501.09,273.94 L481.55,293.68 L490.45,292.39 L501.09,273.94 L501.09,273.94 Z M502.35,336 L497.11,332.52 L496.69,333.58 L502.35,336 L502.35,336 Z M494.06,332.46 L491.86,329.05 L475.55,318.24 L479.95,310.61 L473.97,301.35 L471.25,304.1 L449.96,313.62 L494.06,332.46 L494.06,332.46 Z" id="Fill-1254" fill="#0099D6" sketch:type="MSShapeGroup" mask="url(#mask-2)"></path>
            <path d="M501.09,273.94 L481.55,293.68 L490.45,292.39 L501.09,273.94 L501.09,273.94 Z M502.35,336 L497.11,332.52 L496.69,333.58 L502.35,336 L502.35,336 Z M494.06,332.46 L491.86,329.05 L475.55,318.24 L479.95,310.61 L473.97,301.35 L471.25,304.1 L449.96,313.62 L494.06,332.46 L494.06,332.46 Z" id="Stroke-1255" stroke="#F39C0D" stroke-linecap="square" sketch:type="MSShapeGroup" mask="url(#mask-2)"></path>
            <path d="M501.09,338.06 L474.22,331.02 L479.79,338.08 L501.09,338.06 L501.09,338.06 Z M447.97,370.19 L448.36,363.91 L447.24,364.08 L447.97,370.19 L447.97,370.19 Z M446.89,361.24 L448.75,357.62 L449.96,338.09 L458.76,338.09 L463.79,328.28 L460.05,327.3 L441.15,313.62 L446.89,361.24 L446.89,361.24 Z" id="Fill-1258" fill="#0099D6" sketch:type="MSShapeGroup" mask="url(#mask-2)"></path>
            <path d="M501.09,338.06 L474.22,331.02 L479.79,338.08 L501.09,338.06 L501.09,338.06 Z M447.97,370.19 L448.36,363.91 L447.24,364.08 L447.97,370.19 L447.97,370.19 Z M446.89,361.24 L448.75,357.62 L449.96,338.09 L458.76,338.09 L463.79,328.28 L460.05,327.3 L441.15,313.62 L446.89,361.24 L446.89,361.24 Z" id="Stroke-1259" stroke="#F39C0D" stroke-linecap="square" sketch:type="MSShapeGroup" mask="url(#mask-2)"></path>
            <path d="M501.09,338.06 L481.55,318.32 L490.45,319.61 L501.09,338.06 L501.09,338.06 Z M502.35,276 L497.11,279.48 L496.69,278.42 L502.35,276 L502.35,276 Z M494.06,279.54 L491.86,282.95 L475.55,293.76 L479.95,301.39 L473.97,310.65 L471.25,307.9 L449.96,298.38 L494.06,279.54 L494.06,279.54 Z" id="Fill-1260" fill="#0099D6" sketch:type="MSShapeGroup" mask="url(#mask-2)"></path>
            <path d="M501.09,338.06 L481.55,318.32 L490.45,319.61 L501.09,338.06 L501.09,338.06 Z M502.35,276 L497.11,279.48 L496.69,278.42 L502.35,276 L502.35,276 Z M494.06,279.54 L491.86,282.95 L475.55,293.76 L479.95,301.39 L473.97,310.65 L471.25,307.9 L449.96,298.38 L494.06,279.54 L494.06,279.54 Z" id="Stroke-1261" stroke="#F39C0D" stroke-linecap="square" sketch:type="MSShapeGroup" mask="url(#mask-2)"></path>
            <path d="M445.56,370.13 L438.22,343.33 L434.89,351.68 L445.56,370.13 L445.56,370.13 Z M391.17,340.19 L396.81,337.38 L396.1,336.49 L391.17,340.19 L391.17,340.19 Z M398.39,334.78 L402.45,334.58 L419.96,325.86 L424.37,333.48 L435.38,332.93 L434.35,329.2 L436.75,306 L398.39,334.78 L398.39,334.78 Z" id="Fill-1262" fill="#0099D6" sketch:type="MSShapeGroup" mask="url(#mask-2)"></path>
            <path d="M445.56,370.13 L438.22,343.33 L434.89,351.68 L445.56,370.13 L445.56,370.13 Z M391.17,340.19 L396.81,337.38 L396.1,336.49 L391.17,340.19 L391.17,340.19 Z M398.39,334.78 L402.45,334.58 L419.96,325.86 L424.37,333.48 L435.38,332.93 L434.35,329.2 L436.75,306 L398.39,334.78 L398.39,334.78 Z" id="Stroke-1263" stroke="#F39C0D" stroke-linecap="square" sketch:type="MSShapeGroup" mask="url(#mask-2)"></path>
            <path d="M445.56,370.13 L452.89,343.33 L456.22,351.68 L445.56,370.13 L445.56,370.13 Z M499.94,340.19 L494.3,337.38 L495.01,336.49 L499.94,340.19 L499.94,340.19 Z M492.73,334.78 L488.66,334.58 L471.15,325.86 L466.74,333.48 L455.74,332.93 L456.76,329.2 L454.36,306 L492.73,334.78 L492.73,334.78 Z" id="Fill-1264" fill="#0099D6" sketch:type="MSShapeGroup" mask="url(#mask-2)"></path>
            <path d="M445.56,370.13 L452.89,343.33 L456.22,351.68 L445.56,370.13 L445.56,370.13 Z M499.94,340.19 L494.3,337.38 L495.01,336.49 L499.94,340.19 L499.94,340.19 Z M492.73,334.78 L488.66,334.58 L471.15,325.86 L466.74,333.48 L455.74,332.93 L456.76,329.2 L454.36,306 L492.73,334.78 L492.73,334.78 Z" id="Stroke-1265" stroke="#F39C0D" stroke-linecap="square" sketch:type="MSShapeGroup" mask="url(#mask-2)"></path>
            <path d="M390.02,338.06 L416.89,331.02 L411.32,338.08 L390.02,338.06 L390.02,338.06 Z M443.14,370.19 L442.75,363.91 L443.88,364.08 L443.14,370.19 L443.14,370.19 Z M444.22,361.24 L442.36,357.62 L441.16,338.09 L432.35,338.09 L427.32,328.28 L431.06,327.3 L449.96,313.62 L444.22,361.24 L444.22,361.24 Z" id="Fill-1268" fill="#0099D6" sketch:type="MSShapeGroup" mask="url(#mask-2)"></path>
            <path d="M390.02,338.06 L416.89,331.02 L411.32,338.08 L390.02,338.06 L390.02,338.06 Z M443.14,370.19 L442.75,363.91 L443.88,364.08 L443.14,370.19 L443.14,370.19 Z M444.22,361.24 L442.36,357.62 L441.16,338.09 L432.35,338.09 L427.32,328.28 L431.06,327.3 L449.96,313.62 L444.22,361.24 L444.22,361.24 Z" id="Stroke-1269" stroke="#F39C0D" stroke-linecap="square" sketch:type="MSShapeGroup" mask="url(#mask-2)"></path>
            <path d="M666.67,435.87 L674,462.67 L677.33,454.32 L666.67,435.87 L666.67,435.87 Z M721.05,465.81 L715.41,468.62 L716.12,469.51 L721.05,465.81 L721.05,465.81 Z M713.84,471.22 L709.78,471.42 L692.26,480.14 L687.85,472.52 L676.85,473.07 L677.87,476.8 L675.47,500 L713.84,471.22 L713.84,471.22 Z" id="Fill-1442" fill="#0099D6" sketch:type="MSShapeGroup" mask="url(#mask-2)"></path>
            <path d="M666.67,435.87 L674,462.67 L677.33,454.32 L666.67,435.87 L666.67,435.87 Z M721.05,465.81 L715.41,468.62 L716.12,469.51 L721.05,465.81 L721.05,465.81 Z M713.84,471.22 L709.78,471.42 L692.26,480.14 L687.85,472.52 L676.85,473.07 L677.87,476.8 L675.47,500 L713.84,471.22 L713.84,471.22 Z" id="Stroke-1443" stroke="#F39C0D" stroke-linecap="square" sketch:type="MSShapeGroup" mask="url(#mask-2)"></path>
            <path d="M666.67,435.87 L659.33,462.67 L656.01,454.32 L666.67,435.87 L666.67,435.87 Z M612.28,465.81 L617.92,468.62 L617.21,469.51 L612.28,465.81 L612.28,465.81 Z M619.5,471.22 L623.56,471.42 L641.07,480.14 L645.48,472.52 L656.49,473.07 L655.47,476.8 L657.86,500 L619.5,471.22 L619.5,471.22 Z" id="Fill-1444" fill="#0099D6" sketch:type="MSShapeGroup" mask="url(#mask-2)"></path>
            <path d="M666.67,435.87 L659.33,462.67 L656.01,454.32 L666.67,435.87 L666.67,435.87 Z M612.28,465.81 L617.92,468.62 L617.21,469.51 L612.28,465.81 L612.28,465.81 Z M619.5,471.22 L623.56,471.42 L641.07,480.14 L645.48,472.52 L656.49,473.07 L655.47,476.8 L657.86,500 L619.5,471.22 L619.5,471.22 Z" id="Stroke-1445" stroke="#F39C0D" stroke-linecap="square" sketch:type="MSShapeGroup" mask="url(#mask-2)"></path>
            <path d="M722.2,467.94 L695.33,474.98 L700.9,467.92 L722.2,467.94 L722.2,467.94 Z M669.08,435.81 L669.47,442.09 L668.35,441.92 L669.08,435.81 L669.08,435.81 Z M668.01,444.76 L669.86,448.38 L671.07,467.91 L679.87,467.91 L684.9,477.72 L681.16,478.7 L662.27,492.38 L668.01,444.76 L668.01,444.76 Z" id="Fill-1448" fill="#0099D6" sketch:type="MSShapeGroup" mask="url(#mask-2)"></path>
            <path d="M722.2,467.94 L695.33,474.98 L700.9,467.92 L722.2,467.94 L722.2,467.94 Z M669.08,435.81 L669.47,442.09 L668.35,441.92 L669.08,435.81 L669.08,435.81 Z M668.01,444.76 L669.86,448.38 L671.07,467.91 L679.87,467.91 L684.9,477.72 L681.16,478.7 L662.27,492.38 L668.01,444.76 L668.01,444.76 Z" id="Stroke-1449" stroke="#F39C0D" stroke-linecap="square" sketch:type="MSShapeGroup" mask="url(#mask-2)"></path>
            <path d="M666.67,564.13 L659.33,537.33 L656.01,545.68 L666.67,564.13 L666.67,564.13 Z M612.28,534.19 L617.92,531.38 L617.21,530.49 L612.28,534.19 L612.28,534.19 Z M619.5,528.78 L623.56,528.58 L641.07,519.86 L645.48,527.48 L656.49,526.93 L655.47,523.2 L657.86,500 L619.5,528.78 L619.5,528.78 Z" id="Fill-1454" fill="#0099D6" sketch:type="MSShapeGroup" mask="url(#mask-2)"></path>
            <path d="M666.67,564.13 L659.33,537.33 L656.01,545.68 L666.67,564.13 L666.67,564.13 Z M612.28,534.19 L617.92,531.38 L617.21,530.49 L612.28,534.19 L612.28,534.19 Z M619.5,528.78 L623.56,528.58 L641.07,519.86 L645.48,527.48 L656.49,526.93 L655.47,523.2 L657.86,500 L619.5,528.78 L619.5,528.78 Z" id="Stroke-1455" stroke="#F39C0D" stroke-linecap="square" sketch:type="MSShapeGroup" mask="url(#mask-2)"></path>
            <path d="M666.67,564.13 L674,537.33 L677.33,545.68 L666.67,564.13 L666.67,564.13 Z M721.05,534.19 L715.41,531.38 L716.12,530.49 L721.05,534.19 L721.05,534.19 Z M713.84,528.78 L709.78,528.58 L692.26,519.86 L687.85,527.48 L676.85,526.93 L677.87,523.2 L675.47,500 L713.84,528.78 L713.84,528.78 Z" id="Fill-1456" fill="#0099D6" sketch:type="MSShapeGroup" mask="url(#mask-2)"></path>
            <path d="M666.67,564.13 L674,537.33 L677.33,545.68 L666.67,564.13 L666.67,564.13 Z M721.05,534.19 L715.41,531.38 L716.12,530.49 L721.05,534.19 L721.05,534.19 Z M713.84,528.78 L709.78,528.58 L692.26,519.86 L687.85,527.48 L676.85,526.93 L677.87,523.2 L675.47,500 L713.84,528.78 L713.84,528.78 Z" id="Stroke-1457" stroke="#F39C0D" stroke-linecap="square" sketch:type="MSShapeGroup" mask="url(#mask-2)"></path>
            <path d="M611.13,532.06 L630.67,512.32 L621.77,513.61 L611.13,532.06 L611.13,532.06 Z M609.87,470 L615.11,473.48 L615.53,472.42 L609.87,470 L609.87,470 Z M618.16,473.54 L620.36,476.95 L636.67,487.76 L632.27,495.39 L638.25,504.65 L640.97,501.9 L662.27,492.38 L618.16,473.54 L618.16,473.54 Z" id="Fill-1458" fill="#0099D6" sketch:type="MSShapeGroup" mask="url(#mask-2)"></path>
            <path d="M611.13,532.06 L630.67,512.32 L621.77,513.61 L611.13,532.06 L611.13,532.06 Z M609.87,470 L615.11,473.48 L615.53,472.42 L609.87,470 L609.87,470 Z M618.16,473.54 L620.36,476.95 L636.67,487.76 L632.27,495.39 L638.25,504.65 L640.97,501.9 L662.27,492.38 L618.16,473.54 L618.16,473.54 Z" id="Stroke-1459" stroke="#F39C0D" stroke-linecap="square" sketch:type="MSShapeGroup" mask="url(#mask-2)"></path>
            <path d="M611.13,467.94 L638,474.98 L632.43,467.92 L611.13,467.94 L611.13,467.94 Z M664.25,435.81 L663.86,442.09 L664.99,441.92 L664.25,435.81 L664.25,435.81 Z M665.33,444.76 L663.47,448.38 L662.27,467.91 L653.46,467.91 L648.43,477.72 L652.17,478.7 L671.07,492.38 L665.33,444.76 L665.33,444.76 Z" id="Fill-1462" fill="#0099D6" sketch:type="MSShapeGroup" mask="url(#mask-2)"></path>
            <path d="M611.13,467.94 L638,474.98 L632.43,467.92 L611.13,467.94 L611.13,467.94 Z M664.25,435.81 L663.86,442.09 L664.99,441.92 L664.25,435.81 L664.25,435.81 Z M665.33,444.76 L663.47,448.38 L662.27,467.91 L653.46,467.91 L648.43,477.72 L652.17,478.7 L671.07,492.38 L665.33,444.76 L665.33,444.76 Z" id="Stroke-1463" stroke="#F39C0D" stroke-linecap="square" sketch:type="MSShapeGroup" mask="url(#mask-2)"></path>
            <path d="M611.13,467.94 L630.67,487.68 L621.77,486.39 L611.13,467.94 L611.13,467.94 Z M609.87,530 L615.11,526.52 L615.53,527.58 L609.87,530 L609.87,530 Z M618.16,526.46 L620.36,523.05 L636.67,512.24 L632.27,504.61 L638.25,495.35 L640.97,498.1 L662.27,507.62 L618.16,526.46 L618.16,526.46 Z" id="Fill-1464" fill="#0099D6" sketch:type="MSShapeGroup" mask="url(#mask-2)"></path>
            <path d="M611.13,467.94 L630.67,487.68 L621.77,486.39 L611.13,467.94 L611.13,467.94 Z M609.87,530 L615.11,526.52 L615.53,527.58 L609.87,530 L609.87,530 Z M618.16,526.46 L620.36,523.05 L636.67,512.24 L632.27,504.61 L638.25,495.35 L640.97,498.1 L662.27,507.62 L618.16,526.46 L618.16,526.46 Z" id="Stroke-1465" stroke="#F39C0D" stroke-linecap="square" sketch:type="MSShapeGroup" mask="url(#mask-2)"></path>
            <path d="M611.67,338.87 L619,365.67 L622.33,357.32 L611.67,338.87 L611.67,338.87 Z M666.05,368.81 L660.41,371.62 L661.12,372.51 L666.05,368.81 L666.05,368.81 Z M658.84,374.22 L654.78,374.42 L637.26,383.14 L632.85,375.52 L621.85,376.07 L622.87,379.8 L620.47,403 L658.84,374.22 L658.84,374.22 Z" id="Fill-1466" fill="#0099D6" sketch:type="MSShapeGroup" mask="url(#mask-2)"></path>
            <path d="M611.67,338.87 L619,365.67 L622.33,357.32 L611.67,338.87 L611.67,338.87 Z M666.05,368.81 L660.41,371.62 L661.12,372.51 L666.05,368.81 L666.05,368.81 Z M658.84,374.22 L654.78,374.42 L637.26,383.14 L632.85,375.52 L621.85,376.07 L622.87,379.8 L620.47,403 L658.84,374.22 L658.84,374.22 Z" id="Stroke-1467" stroke="#F39C0D" stroke-linecap="square" sketch:type="MSShapeGroup" mask="url(#mask-2)"></path>
            <path d="M611.67,338.87 L604.33,365.67 L601.01,357.32 L611.67,338.87 L611.67,338.87 Z M557.28,368.81 L562.92,371.62 L562.21,372.51 L557.28,368.81 L557.28,368.81 Z M564.5,374.22 L568.56,374.42 L586.07,383.14 L590.48,375.52 L601.49,376.07 L600.47,379.8 L602.86,403 L564.5,374.22 L564.5,374.22 Z" id="Fill-1468" fill="#0099D6" sketch:type="MSShapeGroup" mask="url(#mask-2)"></path>
            <path d="M611.67,338.87 L604.33,365.67 L601.01,357.32 L611.67,338.87 L611.67,338.87 Z M557.28,368.81 L562.92,371.62 L562.21,372.51 L557.28,368.81 L557.28,368.81 Z M564.5,374.22 L568.56,374.42 L586.07,383.14 L590.48,375.52 L601.49,376.07 L600.47,379.8 L602.86,403 L564.5,374.22 L564.5,374.22 Z" id="Stroke-1469" stroke="#F39C0D" stroke-linecap="square" sketch:type="MSShapeGroup" mask="url(#mask-2)"></path>
            <path d="M667.2,370.94 L647.66,390.68 L656.56,389.39 L667.2,370.94 L667.2,370.94 Z M668.47,433 L663.22,429.52 L662.8,430.58 L668.47,433 L668.47,433 Z M660.18,429.46 L657.97,426.05 L641.66,415.24 L646.06,407.61 L640.08,398.35 L637.36,401.1 L616.07,410.62 L660.18,429.46 L660.18,429.46 Z" id="Fill-1470" fill="#0099D6" sketch:type="MSShapeGroup" mask="url(#mask-2)"></path>
            <path d="M667.2,370.94 L647.66,390.68 L656.56,389.39 L667.2,370.94 L667.2,370.94 Z M668.47,433 L663.22,429.52 L662.8,430.58 L668.47,433 L668.47,433 Z M660.18,429.46 L657.97,426.05 L641.66,415.24 L646.06,407.61 L640.08,398.35 L637.36,401.1 L616.07,410.62 L660.18,429.46 L660.18,429.46 Z" id="Stroke-1471" stroke="#F39C0D" stroke-linecap="square" sketch:type="MSShapeGroup" mask="url(#mask-2)"></path>
            <path d="M667.2,370.94 L640.33,377.98 L645.9,370.92 L667.2,370.94 L667.2,370.94 Z M614.08,338.81 L614.47,345.09 L613.35,344.92 L614.08,338.81 L614.08,338.81 Z M613.01,347.76 L614.86,351.38 L616.07,370.91 L624.87,370.91 L629.9,380.72 L626.16,381.7 L607.27,395.38 L613.01,347.76 L613.01,347.76 Z" id="Fill-1472" fill="#0099D6" sketch:type="MSShapeGroup" mask="url(#mask-2)"></path>
            <path d="M667.2,370.94 L640.33,377.98 L645.9,370.92 L667.2,370.94 L667.2,370.94 Z M614.08,338.81 L614.47,345.09 L613.35,344.92 L614.08,338.81 L614.08,338.81 Z M613.01,347.76 L614.86,351.38 L616.07,370.91 L624.87,370.91 L629.9,380.72 L626.16,381.7 L607.27,395.38 L613.01,347.76 L613.01,347.76 Z" id="Stroke-1473" stroke="#F39C0D" stroke-linecap="square" sketch:type="MSShapeGroup" mask="url(#mask-2)"></path>
            <path d="M667.2,435.06 L640.33,428.02 L645.9,435.08 L667.2,435.06 L667.2,435.06 Z M614.08,467.19 L614.47,460.91 L613.35,461.08 L614.08,467.19 L614.08,467.19 Z M613.01,458.24 L614.86,454.62 L616.07,435.09 L624.87,435.09 L629.9,425.28 L626.16,424.3 L607.27,410.62 L613.01,458.24 L613.01,458.24 Z" id="Fill-1474" fill="#0099D6" sketch:type="MSShapeGroup" mask="url(#mask-2)"></path>
            <path d="M667.2,435.06 L640.33,428.02 L645.9,435.08 L667.2,435.06 L667.2,435.06 Z M614.08,467.19 L614.47,460.91 L613.35,461.08 L614.08,467.19 L614.08,467.19 Z M613.01,458.24 L614.86,454.62 L616.07,435.09 L624.87,435.09 L629.9,425.28 L626.16,424.3 L607.27,410.62 L613.01,458.24 L613.01,458.24 Z" id="Stroke-1475" stroke="#F39C0D" stroke-linecap="square" sketch:type="MSShapeGroup" mask="url(#mask-2)"></path>
            <path d="M667.2,435.06 L647.66,415.32 L656.56,416.61 L667.2,435.06 L667.2,435.06 Z M668.47,373 L663.22,376.48 L662.8,375.42 L668.47,373 L668.47,373 Z M660.18,376.54 L657.97,379.95 L641.66,390.76 L646.06,398.39 L640.08,407.65 L637.36,404.9 L616.07,395.38 L660.18,376.54 L660.18,376.54 Z" id="Fill-1476" fill="#0099D6" sketch:type="MSShapeGroup" mask="url(#mask-2)"></path>
            <path d="M667.2,435.06 L647.66,415.32 L656.56,416.61 L667.2,435.06 L667.2,435.06 Z M668.47,373 L663.22,376.48 L662.8,375.42 L668.47,373 L668.47,373 Z M660.18,376.54 L657.97,379.95 L641.66,390.76 L646.06,398.39 L640.08,407.65 L637.36,404.9 L616.07,395.38 L660.18,376.54 L660.18,376.54 Z" id="Stroke-1477" stroke="#F39C0D" stroke-linecap="square" sketch:type="MSShapeGroup" mask="url(#mask-2)"></path>
            <path d="M611.67,467.13 L604.33,440.33 L601.01,448.68 L611.67,467.13 L611.67,467.13 Z M557.28,437.19 L562.92,434.38 L562.21,433.49 L557.28,437.19 L557.28,437.19 Z M564.5,431.78 L568.56,431.58 L586.07,422.86 L590.48,430.48 L601.49,429.93 L600.47,426.2 L602.86,403 L564.5,431.78 L564.5,431.78 Z" id="Fill-1478" fill="#0099D6" sketch:type="MSShapeGroup" mask="url(#mask-2)"></path>
            <path d="M611.67,467.13 L604.33,440.33 L601.01,448.68 L611.67,467.13 L611.67,467.13 Z M557.28,437.19 L562.92,434.38 L562.21,433.49 L557.28,437.19 L557.28,437.19 Z M564.5,431.78 L568.56,431.58 L586.07,422.86 L590.48,430.48 L601.49,429.93 L600.47,426.2 L602.86,403 L564.5,431.78 L564.5,431.78 Z" id="Stroke-1479" stroke="#F39C0D" stroke-linecap="square" sketch:type="MSShapeGroup" mask="url(#mask-2)"></path>
            <path d="M611.67,467.13 L619,440.33 L622.33,448.68 L611.67,467.13 L611.67,467.13 Z M666.05,437.19 L660.41,434.38 L661.12,433.49 L666.05,437.19 L666.05,437.19 Z M658.84,431.78 L654.78,431.58 L637.26,422.86 L632.85,430.48 L621.85,429.93 L622.87,426.2 L620.47,403 L658.84,431.78 L658.84,431.78 Z" id="Fill-1480" fill="#0099D6" sketch:type="MSShapeGroup" mask="url(#mask-2)"></path>
            <path d="M611.67,467.13 L619,440.33 L622.33,448.68 L611.67,467.13 L611.67,467.13 Z M666.05,437.19 L660.41,434.38 L661.12,433.49 L666.05,437.19 L666.05,437.19 Z M658.84,431.78 L654.78,431.58 L637.26,422.86 L632.85,430.48 L621.85,429.93 L622.87,426.2 L620.47,403 L658.84,431.78 L658.84,431.78 Z" id="Stroke-1481" stroke="#F39C0D" stroke-linecap="square" sketch:type="MSShapeGroup" mask="url(#mask-2)"></path>
            <path d="M556.13,435.06 L575.67,415.32 L566.77,416.61 L556.13,435.06 L556.13,435.06 Z M554.87,373 L560.11,376.48 L560.53,375.42 L554.87,373 L554.87,373 Z M563.16,376.54 L565.36,379.95 L581.67,390.76 L577.27,398.39 L583.25,407.65 L585.97,404.9 L607.27,395.38 L563.16,376.54 L563.16,376.54 Z" id="Fill-1482" fill="#0099D6" sketch:type="MSShapeGroup" mask="url(#mask-2)"></path>
            <path d="M556.13,435.06 L575.67,415.32 L566.77,416.61 L556.13,435.06 L556.13,435.06 Z M554.87,373 L560.11,376.48 L560.53,375.42 L554.87,373 L554.87,373 Z M563.16,376.54 L565.36,379.95 L581.67,390.76 L577.27,398.39 L583.25,407.65 L585.97,404.9 L607.27,395.38 L563.16,376.54 L563.16,376.54 Z" id="Stroke-1483" stroke="#F39C0D" stroke-linecap="square" sketch:type="MSShapeGroup" mask="url(#mask-2)"></path>
            <path d="M556.13,435.06 L583,428.02 L577.43,435.08 L556.13,435.06 L556.13,435.06 Z M609.25,467.19 L608.86,460.91 L609.99,461.08 L609.25,467.19 L609.25,467.19 Z M610.33,458.24 L608.47,454.62 L607.27,435.09 L598.46,435.09 L593.43,425.28 L597.17,424.3 L616.07,410.62 L610.33,458.24 L610.33,458.24 Z" id="Fill-1484" fill="#0099D6" sketch:type="MSShapeGroup" mask="url(#mask-2)"></path>
            <path d="M556.13,435.06 L583,428.02 L577.43,435.08 L556.13,435.06 L556.13,435.06 Z M609.25,467.19 L608.86,460.91 L609.99,461.08 L609.25,467.19 L609.25,467.19 Z M610.33,458.24 L608.47,454.62 L607.27,435.09 L598.46,435.09 L593.43,425.28 L597.17,424.3 L616.07,410.62 L610.33,458.24 L610.33,458.24 Z" id="Stroke-1485" stroke="#F39C0D" stroke-linecap="square" sketch:type="MSShapeGroup" mask="url(#mask-2)"></path>
            <path d="M556.13,370.94 L583,377.98 L577.43,370.92 L556.13,370.94 L556.13,370.94 Z M609.25,338.81 L608.86,345.09 L609.99,344.92 L609.25,338.81 L609.25,338.81 Z M610.33,347.76 L608.47,351.38 L607.27,370.91 L598.46,370.91 L593.43,380.72 L597.17,381.7 L616.07,395.38 L610.33,347.76 L610.33,347.76 Z" id="Fill-1486" fill="#0099D6" sketch:type="MSShapeGroup" mask="url(#mask-2)"></path>
            <path d="M556.13,370.94 L583,377.98 L577.43,370.92 L556.13,370.94 L556.13,370.94 Z M609.25,338.81 L608.86,345.09 L609.99,344.92 L609.25,338.81 L609.25,338.81 Z M610.33,347.76 L608.47,351.38 L607.27,370.91 L598.46,370.91 L593.43,380.72 L597.17,381.7 L616.07,395.38 L610.33,347.76 L610.33,347.76 Z" id="Stroke-1487" stroke="#F39C0D" stroke-linecap="square" sketch:type="MSShapeGroup" mask="url(#mask-2)"></path>
            <path d="M556.13,370.94 L575.67,390.68 L566.77,389.39 L556.13,370.94 L556.13,370.94 Z M554.87,433 L560.11,429.52 L560.53,430.58 L554.87,433 L554.87,433 Z M563.16,429.46 L565.36,426.05 L581.67,415.24 L577.27,407.61 L583.25,398.35 L585.97,401.1 L607.27,410.62 L563.16,429.46 L563.16,429.46 Z" id="Fill-1488" fill="#0099D6" sketch:type="MSShapeGroup" mask="url(#mask-2)"></path>
            <path d="M556.13,370.94 L575.67,390.68 L566.77,389.39 L556.13,370.94 L556.13,370.94 Z M554.87,433 L560.11,429.52 L560.53,430.58 L554.87,433 L554.87,433 Z M563.16,429.46 L565.36,426.05 L581.67,415.24 L577.27,407.61 L583.25,398.35 L585.97,401.1 L607.27,410.62 L563.16,429.46 L563.16,429.46 Z" id="Stroke-1489" stroke="#F39C0D" stroke-linecap="square" sketch:type="MSShapeGroup" mask="url(#mask-2)"></path>
            <path d="M612.2,273.94 L592.66,293.68 L601.56,292.39 L612.2,273.94 L612.2,273.94 Z M613.47,336 L608.22,332.52 L607.8,333.58 L613.47,336 L613.47,336 Z M605.18,332.46 L602.97,329.05 L586.66,318.24 L591.06,310.61 L585.08,301.35 L582.36,304.1 L561.07,313.62 L605.18,332.46 L605.18,332.46 Z" id="Fill-1494" fill="#0099D6" sketch:type="MSShapeGroup" mask="url(#mask-2)"></path>
            <path d="M612.2,273.94 L592.66,293.68 L601.56,292.39 L612.2,273.94 L612.2,273.94 Z M613.47,336 L608.22,332.52 L607.8,333.58 L613.47,336 L613.47,336 Z M605.18,332.46 L602.97,329.05 L586.66,318.24 L591.06,310.61 L585.08,301.35 L582.36,304.1 L561.07,313.62 L605.18,332.46 L605.18,332.46 Z" id="Stroke-1495" stroke="#F39C0D" stroke-linecap="square" sketch:type="MSShapeGroup" mask="url(#mask-2)"></path>
            <path d="M612.2,338.06 L585.33,331.02 L590.9,338.08 L612.2,338.06 L612.2,338.06 Z M559.08,370.19 L559.47,363.91 L558.35,364.08 L559.08,370.19 L559.08,370.19 Z M558.01,361.24 L559.86,357.62 L561.07,338.09 L569.87,338.09 L574.9,328.28 L571.16,327.3 L552.27,313.62 L558.01,361.24 L558.01,361.24 Z" id="Fill-1498" fill="#0099D6" sketch:type="MSShapeGroup" mask="url(#mask-2)"></path>
            <path d="M612.2,338.06 L585.33,331.02 L590.9,338.08 L612.2,338.06 L612.2,338.06 Z M559.08,370.19 L559.47,363.91 L558.35,364.08 L559.08,370.19 L559.08,370.19 Z M558.01,361.24 L559.86,357.62 L561.07,338.09 L569.87,338.09 L574.9,328.28 L571.16,327.3 L552.27,313.62 L558.01,361.24 L558.01,361.24 Z" id="Stroke-1499" stroke="#F39C0D" stroke-linecap="square" sketch:type="MSShapeGroup" mask="url(#mask-2)"></path>
            <path d="M612.2,338.06 L592.66,318.32 L601.56,319.61 L612.2,338.06 L612.2,338.06 Z M613.47,276 L608.22,279.48 L607.8,278.42 L613.47,276 L613.47,276 Z M605.18,279.54 L602.97,282.95 L586.66,293.76 L591.06,301.39 L585.08,310.65 L582.36,307.9 L561.07,298.38 L605.18,279.54 L605.18,279.54 Z" id="Fill-1500" fill="#0099D6" sketch:type="MSShapeGroup" mask="url(#mask-2)"></path>
            <path d="M612.2,338.06 L592.66,318.32 L601.56,319.61 L612.2,338.06 L612.2,338.06 Z M613.47,276 L608.22,279.48 L607.8,278.42 L613.47,276 L613.47,276 Z M605.18,279.54 L602.97,282.95 L586.66,293.76 L591.06,301.39 L585.08,310.65 L582.36,307.9 L561.07,298.38 L605.18,279.54 L605.18,279.54 Z" id="Stroke-1501" stroke="#F39C0D" stroke-linecap="square" sketch:type="MSShapeGroup" mask="url(#mask-2)"></path>
            <path d="M556.67,370.13 L549.33,343.33 L546.01,351.68 L556.67,370.13 L556.67,370.13 Z M502.28,340.19 L507.92,337.38 L507.21,336.49 L502.28,340.19 L502.28,340.19 Z M509.5,334.78 L513.56,334.58 L531.07,325.86 L535.48,333.48 L546.49,332.93 L545.47,329.2 L547.86,306 L509.5,334.78 L509.5,334.78 Z" id="Fill-1502" fill="#0099D6" sketch:type="MSShapeGroup" mask="url(#mask-2)"></path>
            <path d="M556.67,370.13 L549.33,343.33 L546.01,351.68 L556.67,370.13 L556.67,370.13 Z M502.28,340.19 L507.92,337.38 L507.21,336.49 L502.28,340.19 L502.28,340.19 Z M509.5,334.78 L513.56,334.58 L531.07,325.86 L535.48,333.48 L546.49,332.93 L545.47,329.2 L547.86,306 L509.5,334.78 L509.5,334.78 Z" id="Stroke-1503" stroke="#F39C0D" stroke-linecap="square" sketch:type="MSShapeGroup" mask="url(#mask-2)"></path>
            <path d="M556.67,370.13 L564,343.33 L567.33,351.68 L556.67,370.13 L556.67,370.13 Z M611.05,340.19 L605.41,337.38 L606.12,336.49 L611.05,340.19 L611.05,340.19 Z M603.84,334.78 L599.78,334.58 L582.26,325.86 L577.85,333.48 L566.85,332.93 L567.87,329.2 L565.47,306 L603.84,334.78 L603.84,334.78 Z" id="Fill-1504" fill="#0099D6" sketch:type="MSShapeGroup" mask="url(#mask-2)"></path>
            <path d="M556.67,370.13 L564,343.33 L567.33,351.68 L556.67,370.13 L556.67,370.13 Z M611.05,340.19 L605.41,337.38 L606.12,336.49 L611.05,340.19 L611.05,340.19 Z M603.84,334.78 L599.78,334.58 L582.26,325.86 L577.85,333.48 L566.85,332.93 L567.87,329.2 L565.47,306 L603.84,334.78 L603.84,334.78 Z" id="Stroke-1505" stroke="#F39C0D" stroke-linecap="square" sketch:type="MSShapeGroup" mask="url(#mask-2)"></path>
            <path d="M501.13,338.06 L520.67,318.32 L511.77,319.61 L501.13,338.06 L501.13,338.06 Z M499.87,276 L505.11,279.48 L505.53,278.42 L499.87,276 L499.87,276 Z M508.16,279.54 L510.36,282.95 L526.67,293.76 L522.27,301.39 L528.25,310.65 L530.97,307.9 L552.27,298.38 L508.16,279.54 L508.16,279.54 Z" id="Fill-1506" fill="#0099D6" sketch:type="MSShapeGroup" mask="url(#mask-2)"></path>
            <path d="M501.13,338.06 L520.67,318.32 L511.77,319.61 L501.13,338.06 L501.13,338.06 Z M499.87,276 L505.11,279.48 L505.53,278.42 L499.87,276 L499.87,276 Z M508.16,279.54 L510.36,282.95 L526.67,293.76 L522.27,301.39 L528.25,310.65 L530.97,307.9 L552.27,298.38 L508.16,279.54 L508.16,279.54 Z" id="Stroke-1507" stroke="#F39C0D" stroke-linecap="square" sketch:type="MSShapeGroup" mask="url(#mask-2)"></path>
            <path d="M501.13,338.06 L528,331.02 L522.43,338.08 L501.13,338.06 L501.13,338.06 Z M554.25,370.19 L553.86,363.91 L554.99,364.08 L554.25,370.19 L554.25,370.19 Z M555.33,361.24 L553.47,357.62 L552.27,338.09 L543.46,338.09 L538.43,328.28 L542.17,327.3 L561.07,313.62 L555.33,361.24 L555.33,361.24 Z" id="Fill-1508" fill="#0099D6" sketch:type="MSShapeGroup" mask="url(#mask-2)"></path>
            <path d="M501.13,338.06 L528,331.02 L522.43,338.08 L501.13,338.06 L501.13,338.06 Z M554.25,370.19 L553.86,363.91 L554.99,364.08 L554.25,370.19 L554.25,370.19 Z M555.33,361.24 L553.47,357.62 L552.27,338.09 L543.46,338.09 L538.43,328.28 L542.17,327.3 L561.07,313.62 L555.33,361.24 L555.33,361.24 Z" id="Stroke-1509" stroke="#F39C0D" stroke-linecap="square" sketch:type="MSShapeGroup" mask="url(#mask-2)"></path>
            <path d="M501.13,273.94 L520.67,293.68 L511.77,292.39 L501.13,273.94 L501.13,273.94 Z M499.87,336 L505.11,332.52 L505.53,333.58 L499.87,336 L499.87,336 Z M508.16,332.46 L510.36,329.05 L526.67,318.24 L522.27,310.61 L528.25,301.35 L530.97,304.1 L552.27,313.62 L508.16,332.46 L508.16,332.46 Z" id="Fill-1512" fill="#0099D6" sketch:type="MSShapeGroup" mask="url(#mask-2)"></path>
            <path d="M501.13,273.94 L520.67,293.68 L511.77,292.39 L501.13,273.94 L501.13,273.94 Z M499.87,336 L505.11,332.52 L505.53,333.58 L499.87,336 L499.87,336 Z M508.16,332.46 L510.36,329.05 L526.67,318.24 L522.27,310.61 L528.25,301.35 L530.97,304.1 L552.27,313.62 L508.16,332.46 L508.16,332.46 Z" id="Stroke-1513" stroke="#F39C0D" stroke-linecap="square" sketch:type="MSShapeGroup" mask="url(#mask-2)"></path>
            <path d="M667.24,435.06 L686.78,415.32 L677.88,416.61 L667.24,435.06 L667.24,435.06 Z M665.98,373 L671.23,376.48 L671.64,375.42 L665.98,373 L665.98,373 Z M674.27,376.54 L676.48,379.95 L692.78,390.76 L688.39,398.39 L694.36,407.65 L697.08,404.9 L718.38,395.38 L674.27,376.54 L674.27,376.54 Z" id="Fill-1722" fill="#0099D6" sketch:type="MSShapeGroup" mask="url(#mask-2)"></path>
            <path d="M667.24,435.06 L686.78,415.32 L677.88,416.61 L667.24,435.06 L667.24,435.06 Z M665.98,373 L671.23,376.48 L671.64,375.42 L665.98,373 L665.98,373 Z M674.27,376.54 L676.48,379.95 L692.78,390.76 L688.39,398.39 L694.36,407.65 L697.08,404.9 L718.38,395.38 L674.27,376.54 L674.27,376.54 Z" id="Stroke-1723" stroke="#F39C0D" stroke-linecap="square" sketch:type="MSShapeGroup" mask="url(#mask-2)"></path>
            <path d="M667.24,370.94 L686.78,390.68 L677.88,389.39 L667.24,370.94 L667.24,370.94 Z M665.98,433 L671.23,429.52 L671.64,430.58 L665.98,433 L665.98,433 Z M674.27,429.46 L676.48,426.05 L692.78,415.24 L688.39,407.61 L694.36,398.35 L697.08,401.1 L718.38,410.62 L674.27,429.46 L674.27,429.46 Z" id="Fill-1728" fill="#0099D6" sketch:type="MSShapeGroup" mask="url(#mask-2)"></path>
            <path d="M667.24,370.94 L686.78,390.68 L677.88,389.39 L667.24,370.94 L667.24,370.94 Z M665.98,433 L671.23,429.52 L671.64,430.58 L665.98,433 L665.98,433 Z M674.27,429.46 L676.48,426.05 L692.78,415.24 L688.39,407.61 L694.36,398.35 L697.08,401.1 L718.38,410.62 L674.27,429.46 L674.27,429.46 Z" id="Stroke-1729" stroke="#F39C0D" stroke-linecap="square" sketch:type="MSShapeGroup" mask="url(#mask-2)"></path>
            <path d="M723.31,338.06 L696.44,331.02 L702.01,338.08 L723.31,338.06 L723.31,338.06 Z M670.19,370.19 L670.58,363.91 L669.46,364.08 L670.19,370.19 L670.19,370.19 Z M669.12,361.24 L670.97,357.62 L672.18,338.09 L680.99,338.09 L686.01,328.28 L682.27,327.3 L663.38,313.62 L669.12,361.24 L669.12,361.24 Z" id="Fill-1738" fill="#0099D6" sketch:type="MSShapeGroup" mask="url(#mask-2)"></path>
            <path d="M723.31,338.06 L696.44,331.02 L702.01,338.08 L723.31,338.06 L723.31,338.06 Z M670.19,370.19 L670.58,363.91 L669.46,364.08 L670.19,370.19 L670.19,370.19 Z M669.12,361.24 L670.97,357.62 L672.18,338.09 L680.99,338.09 L686.01,328.28 L682.27,327.3 L663.38,313.62 L669.12,361.24 L669.12,361.24 Z" id="Stroke-1739" stroke="#F39C0D" stroke-linecap="square" sketch:type="MSShapeGroup" mask="url(#mask-2)"></path>
            <path d="M667.78,370.13 L660.44,343.33 L657.12,351.68 L667.78,370.13 L667.78,370.13 Z M613.4,340.19 L619.03,337.38 L618.32,336.49 L613.4,340.19 L613.4,340.19 Z M620.61,334.78 L624.67,334.58 L642.18,325.86 L646.59,333.48 L657.6,332.93 L656.58,329.2 L658.98,306 L620.61,334.78 L620.61,334.78 Z" id="Fill-1742" fill="#0099D6" sketch:type="MSShapeGroup" mask="url(#mask-2)"></path>
            <path d="M667.78,370.13 L660.44,343.33 L657.12,351.68 L667.78,370.13 L667.78,370.13 Z M613.4,340.19 L619.03,337.38 L618.32,336.49 L613.4,340.19 L613.4,340.19 Z M620.61,334.78 L624.67,334.58 L642.18,325.86 L646.59,333.48 L657.6,332.93 L656.58,329.2 L658.98,306 L620.61,334.78 L620.61,334.78 Z" id="Stroke-1743" stroke="#F39C0D" stroke-linecap="square" sketch:type="MSShapeGroup" mask="url(#mask-2)"></path>
            <path d="M612.24,338.06 L631.78,318.32 L622.88,319.61 L612.24,338.06 L612.24,338.06 Z M610.98,276 L616.23,279.48 L616.64,278.42 L610.98,276 L610.98,276 Z M619.27,279.54 L621.48,282.95 L637.78,293.76 L633.39,301.39 L639.36,310.65 L642.08,307.9 L663.38,298.38 L619.27,279.54 L619.27,279.54 Z" id="Fill-1746" fill="#0099D6" sketch:type="MSShapeGroup" mask="url(#mask-2)"></path>
            <path d="M612.24,338.06 L631.78,318.32 L622.88,319.61 L612.24,338.06 L612.24,338.06 Z M610.98,276 L616.23,279.48 L616.64,278.42 L610.98,276 L610.98,276 Z M619.27,279.54 L621.48,282.95 L637.78,293.76 L633.39,301.39 L639.36,310.65 L642.08,307.9 L663.38,298.38 L619.27,279.54 L619.27,279.54 Z" id="Stroke-1747" stroke="#F39C0D" stroke-linecap="square" sketch:type="MSShapeGroup" mask="url(#mask-2)"></path>
            <path d="M612.24,338.06 L639.11,331.02 L633.54,338.08 L612.24,338.06 L612.24,338.06 Z M665.36,370.19 L664.97,363.91 L666.1,364.08 L665.36,370.19 L665.36,370.19 Z M666.44,361.24 L664.58,357.62 L663.38,338.09 L654.57,338.09 L649.54,328.28 L653.28,327.3 L672.18,313.62 L666.44,361.24 L666.44,361.24 Z" id="Fill-1748" fill="#0099D6" sketch:type="MSShapeGroup" mask="url(#mask-2)"></path>
            <path d="M612.24,338.06 L639.11,331.02 L633.54,338.08 L612.24,338.06 L612.24,338.06 Z M665.36,370.19 L664.97,363.91 L666.1,364.08 L665.36,370.19 L665.36,370.19 Z M666.44,361.24 L664.58,357.62 L663.38,338.09 L654.57,338.09 L649.54,328.28 L653.28,327.3 L672.18,313.62 L666.44,361.24 L666.44,361.24 Z" id="Stroke-1749" stroke="#F39C0D" stroke-linecap="square" sketch:type="MSShapeGroup" mask="url(#mask-2)"></path>
            <path d="M612.24,273.94 L631.78,293.68 L622.88,292.39 L612.24,273.94 L612.24,273.94 Z M610.98,336 L616.23,332.52 L616.64,333.58 L610.98,336 L610.98,336 Z M619.27,332.46 L621.48,329.05 L637.78,318.24 L633.39,310.61 L639.36,301.35 L642.08,304.1 L663.38,313.62 L619.27,332.46 L619.27,332.46 Z" id="Fill-1752" fill="#0099D6" sketch:type="MSShapeGroup" mask="url(#mask-2)"></path>
            <path d="M612.24,273.94 L631.78,293.68 L622.88,292.39 L612.24,273.94 L612.24,273.94 Z M610.98,336 L616.23,332.52 L616.64,333.58 L610.98,336 L610.98,336 Z M619.27,332.46 L621.48,329.05 L637.78,318.24 L633.39,310.61 L639.36,301.35 L642.08,304.1 L663.38,313.62 L619.27,332.46 L619.27,332.46 Z" id="Stroke-1753" stroke="#F39C0D" stroke-linecap="square" sketch:type="MSShapeGroup" mask="url(#mask-2)"></path>
        </g>
    </g>
</svg>